<svg width="80" height="65" viewBox="0 0 80 65" fill="none" xmlns="http://www.w3.org/2000/svg">
<g clip-path="url(#clip0_8_2)">
<path d="M79.2205 65.28V65.44H79.0505L12.2705 65.52L17.9105 57.28L22.0405 51.25L23.1505 49.63L26.6705 44.48L31.7005 37.12C33.8005 34.05 35.9005 30.98 38.0205 27.93C38.4605 27.29 38.9905 26.57 38.8505 25.75C38.7305 25.02 38.2005 24.33 37.5005 24.06C36.5505 23.69 35.7205 24.1 35.1305 24.86C34.1105 26.18 33.2205 27.62 32.2805 28.99C30.9205 30.98 29.5505 32.98 28.1905 34.97C27.7005 35.69 27.2005 36.42 26.7105 37.14L21.6805 44.5L18.1605 49.65L17.0505 51.27L12.9205 57.3L7.28047 65.54L3.29047 71.37L-20.1795 105.65H-27.5195L-0.0795307 65.54L0.0804691 65.3L5.56047 57.3L9.69047 51.27L10.8005 49.65L14.3205 44.5L19.3505 37.14L33.8505 15.95L38.9905 8.45L44.7705 0L47.9705 6.06L49.2205 8.44L50.1405 10.18L53.1705 15.93L64.3405 37.09L68.2205 44.44L70.9305 49.58L71.7805 51.2L74.9605 57.22L79.1905 65.24L79.2205 65.29V65.28Z" fill="#C02026"/>
</g>
<defs>
<clipPath id="clip0_8_2">
<rect width="80" height="65" fill="white"/>
</clipPath>
</defs>
</svg>
