<?xml version="1.0" encoding="UTF-8"?>
<svg id="Layer_1" xmlns="http://www.w3.org/2000/svg" version="1.1" viewBox="0 0 147.04 134.5">
  <!-- Generator: Adobe Illustrator 30.6.0, SVG Export Plug-In . SVG Version: 2.1.4 Build 109)  -->
  <defs>
    <style>
      .st0 {
        fill: #c02026;
      }
    </style>
  </defs>
  <path class="st0" d="M106.74,65.28v.16h-.17l-66.78.08,5.64-8.24,4.13-6.03,1.11-1.62,3.52-5.15,5.03-7.36c2.1-3.07,4.2-6.14,6.32-9.19.44-.64.97-1.36.83-2.18-.12-.73-.65-1.42-1.35-1.69-.95-.37-1.78.04-2.37.8-1.02,1.32-1.91,2.76-2.85,4.13-1.36,1.99-2.73,3.99-4.09,5.98-.49.72-.99,1.45-1.48,2.17l-5.03,7.36-3.52,5.15-1.11,1.62-4.13,6.03-5.64,8.24-3.99,5.83L7.34,105.65H0l27.44-40.11.16-.24,5.48-8,4.13-6.03,1.11-1.62,3.52-5.15,5.03-7.36,14.5-21.19,5.14-7.5,5.78-8.45,3.2,6.06,1.25,2.38.92,1.74,3.03,5.75,11.17,21.16,3.88,7.35,2.71,5.14.85,1.62,3.18,6.02,4.23,8.02.03.05Z"/>
  <path class="st0" d="M40.28,69.22v-.16l66.95-.09-5.64,8.24-4.13,6.03-1.11,1.62-3.52,5.15-5.03,7.36c-2.1,3.07-4.2,6.14-6.31,9.2-.45.64-.97,1.36-.83,2.18.13.73.65,1.43,1.35,1.69.95.37,1.78-.04,2.37-.8,1.02-1.32,1.91-2.76,2.85-4.14,1.36-1.99,2.73-3.98,4.09-5.98.5-.72.99-1.44,1.48-2.17l5.03-7.36,3.52-5.15,1.11-1.62,4.13-6.03,5.64-8.24,3.99-5.83,23.47-34.31h7.34l-27.46,40.13-.05.08-.11.16-.03.05-5.44,7.95-4.13,6.03-1.11,1.62-3.52,5.15-5.03,7.36-14.5,21.19-5.14,7.51-5.78,8.45s-3.2-6.06-3.2-6.06l-1.25-2.37-.92-1.75-3.03-5.75-11.17-21.16-3.88-7.35-2.71-5.14-.85-1.62-3.18-6.02-4.26-8.07Z"/>
</svg>