<?xml version="1.0" encoding="UTF-8"?>
<svg id="Layer_1" xmlns="http://www.w3.org/2000/svg" version="1.1" viewBox="0 0 267.68 43.42">
  <!-- Generator: Adobe Illustrator 30.6.0, SVG Export Plug-In . SVG Version: 2.1.4 Build 109)  -->
  <defs>
    <style>
      .st0 {
        fill: #52a1a0;
      }
    </style>
  </defs>
  <path class="st0" d="M43.5,21.71c0,11.99-9.74,21.71-21.75,21.71S0,33.7,0,21.71,9.74,0,21.75,0s21.75,9.72,21.75,21.71ZM41.9,21.75c0-11.13-9.04-20.15-20.18-20.15S1.53,10.63,1.53,21.75s9.04,20.15,20.18,20.15,20.18-9.02,20.18-20.15Z"/>
  <path class="st0" d="M171.11,29.62c-.43,0-.73-.33-.66-.54.06-.18.46-.34.68-.32,1.05.07,1.81-.55,1.81-1.61v-8.52c0-.63-.49-1.45-.85-1.79-1.4-1.33-4.46.27-5.82,1.44l.04,8.71c0,.42.26,1.11.51,1.36.28.28.95.37,1.4.46l.6.11c.16.03-.07.7-.3.7h-7.09s-.11-.72-.11-.72c-.04-.22,1.32.09,1.99-.54.26-.24.5-.92.5-1.36v-8.16c0-1.85-1.58-1.88-2.55-2.65l5.02-1.91.1,2.81c2.2-1.64,4.39-3.81,7.06-2.39.86.46,1.6,1.42,1.92,2.59,1.36-1.12,2.64-2.28,4.22-2.81,2.09-.71,4.14.3,4.69,2.4.21.79.35,1.68.35,2.51l.05,7.76c0,1.09.84,1.58,1.78,1.65l.64.04c.13,0-.02.8-.17.8l-6.79.03c-.27,0-.55-.4-.51-.59.03-.18.42-.32.64-.31,1.12.08,1.87-.66,1.87-1.76l.03-7.66c0-.72-.28-1.57-.65-2.16-1.19-1.9-4.88-.21-6.02,1.09v8.78c0,.36.24,1.02.47,1.25.27.28.92.39,1.38.48l.6.11c.16.03-.07.69-.3.7l-6.51.02Z"/>
  <path class="st0" d="M127.94,29.66c-.41,0-.7-.34-.64-.59.04-.19.43-.32.68-.3,1.03.06,1.77-.6,1.77-1.63l-.02-8.64c0-.65-.53-1.43-.91-1.74-1.41-1.16-4.38.33-5.7,1.51l.03,8.88c0,1.06.78,1.62,1.75,1.67.19,0,.53.08.68.12s.01.72-.17.72l-6.87.02c-.24,0-.53-.4-.5-.59.11-.64,2.42.27,2.51-1.89.11-2.82.1-5.63.02-8.46-.02-.83-.53-1.45-1.2-1.81l-1.37-.73,5.08-1.92.08,2.81c2.15-1.64,4.35-3.78,7.09-2.35.87.45,1.57,1.43,1.91,2.59,1.33-1.12,2.59-2.23,4.09-2.8,2.14-.81,4.28.18,4.84,2.37.2.8.35,1.71.35,2.54l.04,7.58c0,.36.24,1.03.43,1.29.22.29.91.47,1.33.52l.56.06c.13.01.11.76-.05.76l-6.83.04c-.24,0-.54-.41-.5-.6.14-.57,1.27,0,1.97-.68.26-.25.55-.96.55-1.38l.02-7.66c0-.86-.32-1.82-.87-2.46-1.25-1.46-4.58.04-5.81,1.32l.03,8.99c0,1.65,1.7,1.56,2.36,1.74.16.04.03.72-.22.72l-6.54.02Z"/>
  <path class="st0" d="M264.34,27.64c1.07.02,2.28.54,2.73,1.43,1.15,2.3-.09,4.83-2.44,5.86-3.55,1.57-11.24,1.63-11.34-3.33l2.95-1.94c-.82-.74-1.8-1.46-1.67-2.7l3.29-2.29c-2.55-.67-4-2.92-3.85-5.47s2.2-4.67,4.91-4.91c1.12-.1,2.25.25,3.36.33,1.78.12,3.41.05,5.32.07l.09,1.27-3.29.06c1.21,1.73,1.64,3.65.96,5.55-.74,2.05-2.72,3.29-4.98,3.28-1.17,0-2.68.36-2.81,1.83-.04.45,1.07.85,1.52.86l5.26.11ZM262.51,17.03c-.5-1.27-1.49-1.99-2.75-1.96-3.08.08-3.61,4.45-2.62,6.98.5,1.28,1.49,2.01,2.79,1.97,3.07-.09,3.55-4.53,2.58-7ZM264.53,30.37c-.51-.63-1.74-.73-2.47-.74l-4.65-.06c-1.37.86-1.87,3.16-.5,4.31,1.9,1.59,4.71,1.49,6.73.15,1.17-.77,1.86-2.46.88-3.67Z"/>
  <path class="st0" d="M217.54,27.63c1.14.02,2.41.5,2.88,1.47,1.11,2.29-.1,4.78-2.42,5.82-3.44,1.54-11.07,1.74-11.41-3.26l3.01-2.01c-.81-.71-1.81-1.47-1.67-2.69l3.3-2.3c-2.56-.65-4.03-2.93-3.86-5.52.17-2.65,2.24-4.63,4.92-4.86,1.08-.09,2.16.23,3.23.31,1.81.15,3.5.06,5.45.08l.09,1.27-3.3.06c1.23,1.76,1.65,3.73.9,5.64-.78,1.98-2.71,3.18-4.92,3.18-1.18,0-2.72.32-2.85,1.84-.04.45,1.1.85,1.56.86l5.08.1ZM215.89,17.06c-.5-1.27-1.47-2.02-2.74-1.98-3.15.08-3.64,4.6-2.58,7.11.51,1.22,1.5,1.88,2.75,1.84,3.02-.08,3.56-4.48,2.58-6.97ZM217.89,30.37c-.41-.49-1.52-.73-2.11-.73l-5.11-.06c-1.23.98-1.76,3.08-.47,4.23,1.94,1.73,4.99,1.59,7.01.06,1.03-.78,1.59-2.38.67-3.5Z"/>
  <path class="st0" d="M110.62,18.9c-.06-1.39-1-2.52-2.27-2.57-1.95-.07-3.65.72-5.13,1.9l.03,8.91c0,1.1.84,1.61,1.78,1.68l.54.04c.12,0,.11.77-.06.77l-6.81.03c-.28,0-.58-.38-.55-.59.03-.19.45-.32.68-.3,1.14.08,1.85-.68,1.86-1.81l.03-13.49c0-.91-.14-1.65-.29-2.6l-2.27-1.34,5.06-1.92.02,9.69c1.41-1.17,2.63-2.26,4.26-2.8,1.9-.63,3.99-.09,4.95,1.7.52.98.72,2.2.73,3.33l.05,7.49c0,.36.24,1.04.45,1.29.23.28.9.45,1.33.51l.57.07c.13.02.09.75-.09.75l-6.75.04c-.29,0-.6-.38-.56-.59.13-.63,2.41.25,2.47-1.94.08-2.72.1-5.4-.03-8.24Z"/>
  <path class="st0" d="M238.92,27.06c0,1.2.84,1.66,1.8,1.73l.63.05c.13,0-.02.76-.18.76h-6.96c-.15.01-.4-.44-.34-.55.35-.59,2.4.2,2.47-1.9.1-2.78.09-5.54.02-8.33-.02-.88-.46-1.51-1.16-1.89l-1.39-.74,5.05-1.9.09,2.99c1.35-1.12,2.53-2.18,4.1-2.72,1.82-.63,3.87-.23,4.93,1.42.6.94.86,2.22.87,3.37l.05,7.7c0,.36.24,1.03.45,1.27.24.27.93.41,1.37.48l.63.11c.18.03-.07.75-.29.75h-6.66c-.25.01-.58-.38-.54-.57.12-.63,2.43.22,2.48-1.94.07-2.79.08-5.52-.03-8.32-.03-.71-.49-1.54-.89-1.91-1.51-1.41-4.83,0-6.51,1.26l.02,8.9Z"/>
  <path class="st0" d="M194.74,29.91c-1.8.39-3.38-.23-4.14-1.75-.68-1.35-.45-3.15.88-4.2.93-.74,2.05-1.36,3.21-1.72l4.03-1.27c0-1.3.21-2.8-.19-4.1-.54-1.75-3.85-1.89-4.76-.63-.35.49-.35,1.19-.34,1.94l-2.8.92c-.25-1.24.37-2.08,1.12-2.83,1.72-1.72,4.12-2.22,6.54-1.9,1.58.21,2.89,1.32,2.9,3.04l.06,7.94c0,.87.14,1.8.52,2.55.42.83,1.7.56,2.42.79.18.06-.05.66-.24.75-.96.46-2.46.88-3.49.3-.95-.54-1.25-1.56-1.57-2.67-1.13,1.31-2.4,2.46-4.16,2.84ZM198.7,25.07c.07-1.2.05-2.13.03-3.22-2.41.84-5.83,1.39-5.81,4.13,0,.94.48,2.08,1.6,2.37,1.99.52,4.06-1.16,4.18-3.28Z"/>
  <path class="st0" d="M89.74,28.26c2.07.37,4-.13,5.88-.98.16.05.36.67.27.86s-.36.43-.61.56c-2.06,1.09-4.32,1.5-6.58,1.21-4.11-.52-6.63-3.82-6.63-7.83,0-4.43,3.2-7.86,7.71-7.85,2.11,0,4.02.89,5.02,2.87.68,1.35.94,2.87.83,4.5h-10.64c-.44,3.13,1.47,6.07,4.75,6.65ZM92.71,19.82c.37-1.58-.12-3.5-1.59-4.35-1.56-.91-3.7-.17-4.74,1.21-.92,1.22-1.28,2.58-1.41,4.12,1.55-.16,7.38.54,7.73-.97Z"/>
  <path class="st0" d="M69.23,29.6h-11.7c-.1-.25-.12-.8.03-1.03l8.55-13.19c-1.89-.05-3.61-.02-5.38.14-2.64.23-1.48,3.31-3.2,2.3l.47-3.13h10.65c.16-.01.52.06.55.19s0,.46-.16.72l-8.53,13.15c9.11.6,7.16-1.48,8.22-2.71.14-.16.93.03.91.25l-.4,3.34Z"/>
  <path class="st0" d="M151.41,29.66c-.36,0-.64-.35-.58-.59.13-.57,1.26-.04,1.98-.67.27-.24.54-.96.54-1.38l.02-7.48c0-2.59-.71-2.09-2.6-3.35l5.07-1.85.05,12.63c0,1.12.72,1.82,1.8,1.82.17,0,.48.06.62.11.18.06-.07.76-.34.76h-6.56Z"/>
  <path class="st0" d="M73.67,29.67c-.39,0-.66-.38-.61-.59.04-.17.42-.33.64-.31,1.13.1,1.88-.63,1.88-1.72v-8.18c.02-.44-.24-1.1-.39-1.46l-2.15-1.25,5.04-1.84.04,12.82c0,1.1.82,1.62,1.74,1.68l.57.04c.13,0,.13.77-.1.77l-6.66.04Z"/>
  <path class="st0" d="M224.05,29.65c-.23,0-.64-.07-.63-.19l.02-.57c0-.16.53-.13.7-.12,1.03.01,1.71-.62,1.74-1.65.08-2.89.07-5.71,0-8.62-.01-.5-.4-1.09-.77-1.3l-1.78-1.02,5.08-1.85.03,12.62c0,.43.25,1.11.49,1.37.73.77,1.95.16,2.03.77.04.27-.27.58-.59.57h-6.32Z"/>
  <circle class="st0" cx="76.4" cy="10.6" r="1.75"/>
  <circle class="st0" cx="226.75" cy="10.61" r="1.75"/>
  <circle class="st0" cx="154.19" cy="10.61" r="1.75"/>
  <path class="st0" d="M19.25,28.39c-.85,1.09-.3,1.61-1.49,3.58-.65,1.08-.78,2.04-.85,3.42-.38-.13-.85-.38-.99-.54,1.18-2.89.56-4.05,2-7.03-2.16-1.04-4.24-1.99-6.26-3.34-.69,2.64-.8,5.57-.08,8.37,1,3.9,4.02,3.66,4.02,4.96,0,.24-.6.55-.86.45-2.45-.99-4.66-1.92-5.59-4.52-.91-2.55-.98-5.21-.29-7.85l.76-2.93c-2.47-2.11-5.35-4.96-4.47-8.38.38,3.32,2.48,5,5.01,7,1.05-2.68,2.37-4.83,3.99-7.18l-2.05-1.13c-.16-.09-.43-.39-.25-.5.48-.31,1.63.86,2.82,1,1.69-2.27,3.58-4.08,5.84-5.61-1.36-.88-2.63-1.64-4.22-1.81s-3.01,1.14-3.25.18c-.06-.23.19-.67.42-.81,3.53-2.2,6.33-1.88,9.41.95,2.28-1.01,6.18-1.96,8.27.12-3.42-1-4.04-.75-7.47.62,1.73,1.84,3.2,3.86,4.54,6.19,1.42-.06,1.83-1.3,3.12-1.01-1.39,1.32-1.51.82-2.73,1.76,2.24,4.26,3.49,8.7,3.93,13.58,1.16-.06,2.26-.22,3.37-.57,1.6-.51,1.7-2.14,2.54-1.89.75.22-.21,3.13-1.38,4.01-1.29.98-2.91,1.23-4.45,1.47-.22,2.09-.98,5.38-2.83,6.57,1.47-2.38,1.76-3.75,1.72-6.51-2.19-.12-3.98-.37-6.06-.78.19,1.71.46,3.25,1.11,4.87l-1.06.19c-.03-2.56-1.16-3.07-1.82-5.47l-4.42-1.45ZM22.1,12.38l.43,1.38c-.37.35-.62,1.08-.34,1.39.73.81,1.75.61,2.59.21l1.52-.72c-1.38-2.11-2.81-4.06-4.81-5.6-2.07,1.59-3.78,3.35-5.21,5.58l1.55.69c.81.56,1.99.66,2.69-.18.29-.35.03-.99-.32-1.37l.47-1.41c.15-.46,1.29-.45,1.44.02ZM19.21,22.87c.73-2.48.59-3.72-.65-5.88l-2.69-1.77c-1.49,2.47-2.71,4.84-3.75,7.57,1.95,1.21,3.94,2.19,5.99,2.96l1.1-2.88ZM24.62,27.55c2.23.48,4.4.62,6.71.49-.74-4.55-2.1-8.82-4.6-12.69-1.96,1.41-3.08,1.39-3.52,3.94-.24,1.41-.03,2.95.61,4.3.48,1.28.69,2.51.79,3.96ZM22.71,27.12l-.85-2.17c-.06-.16-.36-.4-.5-.42s-.48.21-.54.36l-.61,1.56,2.51.67Z"/>
</svg>