<?xml version="1.0" encoding="UTF-8"?>
<svg id="Layer_1" xmlns="http://www.w3.org/2000/svg" version="1.1" viewBox="0 0 130.61 84.05">
  <!-- Generator: Adobe Illustrator 30.6.0, SVG Export Plug-In . SVG Version: 2.1.4 Build 109)  -->
  <defs>
    <style>
      .st0 {
        fill: #c62f28;
      }

      .st1 {
        fill: #285b89;
      }
    </style>
  </defs>
  <path class="st1" d="M80.91,40.92l-11.63.13c-2.14-6.47,4.04-22.34-3.6-22.66-1.77-.07-3.36,1.56-3.31,3.7l.4,16.74c.01.55-.76,2.33-1.28,2.4-.65.09-1.44.07-2.74,0l-6.64-.34c-4.61-.24,3.13-23.62-6.91-22.83-2.11.17-4.19,1.15-5.3,3.02l-10.55,17.88-11.4-19.25c-.97-1.64-5.25-1.91-6.9-1.35-2.05.69-3.58,3.8-3.58,6.3l-.02,12.11c-2.16,1.14-5.32,1.15-7.31-.03C.52,26.53-3.24,7.65,12.25,7.64l43.78-.02c.67,5.64,4.82,9.22,9.69,9.32,5.22.11,9.38-3.62,10.25-9.37l43.14.11c6.61.02,11.45,5.25,11.42,11.42l-.12,28.6c-.05,11.37-16.71,8.37-25.19,8.39l-.08-31.89c4.44-.29,7.98-.32,12.37.23,1.68,4.14-1.71,11.17.57,12.95.77.6,2.88.86,3.95.6.94-.23,1.71-2.2,1.7-3.29l-.13-9.55c-.05-3.85-3.46-6.54-7.26-6.54l-28.99.02c-3.23,0-6.24,2.89-6.27,6.04l-.15,16.26Z"/>
  <path class="st1" d="M13.81,24.69l12.46,20.21c.59.96,1.85,2.2,2.72,2.33,1.08.15,3.1-.91,3.66-1.86l12.04-20.88.31,15.91c.07,3.45,2.57,6.16,6.2,6.16l28.97-.02c3.93,0,6.48-3.24,6.47-6.82l-.05-12.92c0-1.37,2.02-3,3.37-2.96l9.43.31.08,29.78c0,.88-1.39,2.53-2.36,2.53l-86.36-.03c-7.08,0-11.8-6.45-10.31-12.97,2.38-.23,4.58-.38,6.83-.35,3.53.04,5.94-2.04,6.07-5.65l.46-12.77Z"/>
  <path class="st1" d="M20.71,82.74l-.22-12.58-4.97,12.25c-.36.88-3.04,1.34-3.66.82s-1.35-1.62-1.74-2.63l-4.08-10.54-.19,12.92c-1.57.33-3.94.29-5.52-.09v-21.92s7.25-.33,7.25-.33l5.79,14.49,5.88-14.31,7.24.07-.02,21.31c-.86,1.35-4.23,1.48-5.77.54Z"/>
  <path class="st1" d="M130.61,83.39l-5.33-.03-.66-11.81c-.1-1.75-5.53-1.52-5.57.09l-.34,11.54c-1.31.38-3.96.35-5.37-.06v-23.11s5.36-.17,5.36-.17l-.12,8.18,4.6-2.01c1.2-.52,4.05.05,5.15.83s2.26,3.17,2.26,4.54v12.01Z"/>
  <path class="st1" d="M67.72,83.4h-5.9s-.1-17.54-.1-17.54l-6.67-.05c-.2-1.04-.28-3.07-.27-5.05l19.82-.02.09,5.08-6.93-.03-.04,17.61Z"/>
  <path class="st1" d="M78.02,73.32c-.04,1.96.54,4.88,1.67,5.53,3.75,2.14,7,1,10.54-.95.28,1.31.28,3.67-.25,4.81-3.78,1.26-8.65,1.61-12.31.14-4.49-1.8-5.68-6.48-4.65-10.81,1-4.2,5.19-6.78,10.15-6.43,2.32.16,5.1,1.19,6.23,2.86,1.35,2.01,1.88,5.45,1.07,7.35l-8.65-.13c-.21-.79-.37-2.7.23-2.8l2.96-.48c.65-1.52-1.26-3.41-2.95-3.34-2.16.09-3.97,1.21-4.03,4.25Z"/>
  <path class="st0" d="M63.99.28c3.94-1.19,7.64,1.56,8.73,4.87,1.19,3.6-1.28,7.66-4.6,8.7-3.9,1.23-7.48-.82-8.73-4.16-1.39-3.7.13-8.05,4.6-9.41Z"/>
  <path class="st1" d="M108.98,71.51c-2.67-1.42-5.16-2.43-7.18-1.29-2.61,1.47-3.15,4.81-1.86,7.48,1.63,3.37,5.93,2.66,8.93.51.49.8.72,3.43.2,4.63-3.43,1.39-8.49,1.5-11.8-.57-3.97-2.47-4.53-7.72-2.72-11.63,2.39-5.15,9.2-5.81,14.63-3.41.71.31.33,2.94-.19,4.28Z"/>
  <rect class="st1" x="39.6" y="60.72" width="5.91" height="22.59" transform="translate(-.08 .05)"/>
  <circle class="st1" cx="32.93" cy="81.37" r="2.68"/>
  <path class="st1" d="M50.44,78.93c1.05-.77,3.35-.23,3.78.54.5.9.44,3.07-.42,3.63-.78.5-2.68.58-3.44.13-.88-.52-1.01-3.5.08-4.3Z"/>
</svg>