<?xml version="1.0" encoding="UTF-8"?>
<svg id="Layer_1" xmlns="http://www.w3.org/2000/svg" version="1.1" viewBox="0 0 184.85 34.66">
  <!-- Generator: Adobe Illustrator 30.6.0, SVG Export Plug-In . SVG Version: 2.1.4 Build 109)  -->
  <defs>
    <style>
      .st0 {
        fill: #098895;
      }
    </style>
  </defs>
  <rect class="st0" y=".35" width="19.81" height="34.02"/>
  <path class="st0" d="M126.99,29.77c-.31,1.6-1.02,3.34-1.86,4.6h-16.13S94.94.45,94.94.45l19.75-.09,12.3,29.41Z"/>
  <rect class="st0" x="71.74" y=".35" width="19.69" height="34.02"/>
  <path class="st0" d="M68.47,34.16c-3.06.14-5.96.22-8.92.1-6.15-.25-10.66-5.34-10.89-11.32V.36s19.8,0,19.8,0v33.8Z"/>
  <path class="st0" d="M42.65,11.28l.13,23.11h-19.79s0-33.91,0-33.91l7.62-.09c6-.07,12,4.28,12.03,10.89Z"/>
  <path class="st0" d="M181.09,27.03c-4.28,4.87-10.05,7.17-16.71,7.62l-.03-34.65c6.36.35,12.13,2.67,16.37,7.22,5.25,5.62,5.62,13.85.37,19.82Z"/>
  <path class="st0" d="M161.16,34.66c-6.13-.15-11.55-2.58-15.73-6.55-5.84-5.76-6.3-14.34-.84-20.52,4.09-4.63,10.04-7.25,16.55-7.44v34.52Z"/>
  <polygon class="st0" points="139.42 .38 129.16 25.2 118.97 .36 139.42 .38"/>
</svg>