<?xml version="1.0" encoding="UTF-8"?>
<svg id="Layer_1" xmlns="http://www.w3.org/2000/svg" version="1.1" viewBox="0 0 254.32 67.96">
  <!-- Generator: Adobe Illustrator 30.6.0, SVG Export Plug-In . SVG Version: 2.1.4 Build 109)  -->
  <defs>
    <style>
      .st0 {
        fill: #ea1d25;
      }

      .st1 {
        fill: #114b85;
      }
    </style>
  </defs>
  <path class="st0" d="M142.12,52.41V1.29s-18.88,30.88-19.36,31.67h-4.31v3.52h6.31s11.36-18.62,13.89-22.67v53.13s23.09-46.03,25.83-51.6v21.2h6.42l1.63-3.47h-4.52V1.02l-25.88,51.39Z"/>
  <path class="st1" d="M25.67,13.12c-1.26-.53-2.68-.79-4.05-.79-2.79,0-5.58,1.74-5.58,4.84,0,4.68,5.79,4.1,5.79,7.52,0,1.42-1.1,3-3.68,3-1.21,0-2.58-.42-3.58-1.05l-.79,2.21c1.37.53,2.79.95,4.73.95,4.05,0,5.84-2.89,5.84-5.42,0-4.42-5.79-4.47-5.79-7.31,0-2,1.74-2.63,3.37-2.63,1.26,0,2.26.32,3.1.84l.63-2.16Z"/>
  <path class="st1" d="M25.45,34.64h2.26l1.47-6.94h.05c.58,1.42,1.84,2.16,4.05,2.16,4.1,0,6.21-3.73,6.21-8.26,0-2.68-1.63-4.68-4.42-4.68-1.74,0-3.47.63-4.37,2.16h-.05l.42-1.89h-2.16c-.16,1.37-.42,2.74-.63,4.1l-2.84,13.36ZM29.93,24.75c0-3.05,1.79-6,4.42-6,1.58,0,2.79.95,2.79,3.05,0,3.1-1.53,6.21-4.1,6.21-2.16-.05-3.1-1.58-3.1-3.26"/>
  <path class="st1" d="M44.92,22.17c.47-1.84,1.89-3.42,3.79-3.42,1.74,0,2.63,1.05,2.63,2.47,0,.32,0,.58-.05.95h-6.36ZM51.91,27.22c-1.1.47-2.37.74-3.47.74-2.21,0-3.79-.74-3.79-3.37,0-.26,0-.53.05-.79h8.68c.11-.74.21-1.42.21-2.26,0-2.95-1.68-4.73-4.63-4.73-4.37,0-6.79,3.95-6.79,7.36,0,4.37,2.68,5.58,5.68,5.58,1.21,0,2.47-.21,3.68-.53l.37-2Z"/>
  <path class="st1" d="M65.96,17.38c-.89-.32-1.89-.47-3.21-.47-4.31,0-6.73,3.58-6.73,7.78,0,3.42,2.21,5.15,5.47,5.15.79,0,1.63-.05,2.37-.32l.42-2.1c-.74.32-1.74.58-2.47.58-2.16,0-3.37-1.37-3.37-3.68,0-3,1.84-5.58,4.73-5.58.63,0,1.42.16,2.21.63l.58-2Z"/>
  <path class="st1" d="M67.43,19.01h2.74l-1.05,5.15c-.16.68-.42,2.1-.42,2.89,0,1.32.79,2.74,2.95,2.74.63,0,1.74-.05,2.21-.26l.32-1.89c-.42.21-1.1.32-1.58.32-1.16,0-1.63-.47-1.63-1.32,0-.42.26-1.79.37-2.31l1.16-5.31h3.42l.37-1.84h-3.42l.79-3.73-2.47.84-.63,2.84h-2.74l-.37,1.89Z"/>
  <path class="st1" d="M76.64,29.53h2.26l1.26-6.1c.32-1.53,1.68-4.58,4.52-4.58.16,0,.53.05.95.26l.53-2c-.42-.16-.84-.21-1.05-.21-2.16,0-3.47,1.1-4.21,2.26h-.05l.37-1.95h-2.16c-.11.74-.26,1.37-.32,1.89l-2.1,10.41Z"/>
  <path class="st1" d="M99.73,17.17h-2.26l-1.32,6.21c-.32,1.53-1.68,4.58-4.52,4.58-1.42,0-2.26-.95-2.26-2.26,0-.26.05-.74.11-1.16l1.53-7.42h-2.26l-1.37,6.52c-.16.68-.32,1.53-.32,2.26,0,2.63,1.74,3.89,4.1,3.89,2.16,0,3.47-1.1,4.21-2.26h.05l-.37,1.95h2.16c.11-.74.26-1.37.32-1.89l2.21-10.42Z"/>
  <path class="st1" d="M101.62,29.53h2.26l1.37-6.21c.42-1.89,1.68-4.63,4-4.63,1.16,0,1.84.79,1.84,1.84,0,.26-.05.68-.16,1.16l-1.63,7.84h2.26l1.37-6.21c.42-1.89,1.68-4.63,4-4.63,1.16,0,1.84.79,1.84,1.84,0,.26-.05.68-.16,1.16l-1.63,7.84h2.26l1.42-6.84c.21-.89.37-1.84.37-2.58,0-1.89-1.42-3.21-3.42-3.21-1.89,0-3.16.74-4.37,2.16-.42-1.47-1.84-2.16-3.26-2.16-1.63,0-3.05.68-3.95,2h-.05l.32-1.68h-2.21c-.11.53-.16.95-.26,1.42l-2.21,10.89Z"/>
  <path class="st1" d="M176.21,22.17c.47-1.84,1.89-3.42,3.79-3.42,1.74,0,2.63,1.05,2.63,2.47,0,.32,0,.58-.05.95h-6.36ZM183.21,27.22c-1.1.47-2.37.74-3.47.74-2.21,0-3.79-.74-3.79-3.37,0-.26,0-.53.05-.79h8.68c.11-.74.21-1.42.21-2.26,0-2.95-1.68-4.73-4.63-4.73-4.37,0-6.79,3.95-6.79,7.36,0,4.37,2.68,5.58,5.68,5.58,1.21,0,2.47-.21,3.68-.53l.37-2Z"/>
  <path class="st1" d="M201.67,11.33h-2.26l-1.68,7.89h-.05c-.68-1.58-2.31-2.31-4-2.31-4.21,0-6.42,3.89-6.42,7.73,0,2.79,1.58,5.21,4.58,5.21,1.84,0,3.37-.53,4.21-2.16h.05c-.21.63-.32,1.32-.42,1.89h2.16c.16-1.37.42-2.74.68-4.1l3.16-14.15ZM189.73,24.48c0-2.31,1.42-5.73,4.1-5.73,2,0,3.1,1.53,3.1,3.37,0,2.31-1.32,5.89-4.16,5.89-2.1-.05-3.05-1.58-3.05-3.52"/>
  <path class="st1" d="M202.35,29.53h2.26l2.63-12.36h-2.26l-2.63,12.36ZM208.51,11.86h-2.58l-.53,2.58h2.58l.53-2.58Z"/>
  <path class="st1" d="M219.55,17.38c-.95-.32-1.89-.47-3.21-.47-4.31,0-6.73,3.58-6.73,7.78,0,3.42,2.21,5.15,5.47,5.15.79,0,1.63-.05,2.37-.32l.42-2.1c-.74.32-1.74.58-2.47.58-2.16,0-3.37-1.37-3.37-3.68,0-3,1.84-5.58,4.73-5.58.63,0,1.42.16,2.21.63l.58-2Z"/>
  <path class="st1" d="M222.66,19.75c1-.63,2.47-1.05,3.79-1.05,1.68,0,2.84.68,2.84,2.47,0,.26-.05.58-.11.79-.58,0-1.16-.05-1.63-.05-4.16,0-7.31,1-7.31,4.52,0,2.31,1.84,3.42,3.95,3.42,1.63,0,3.26-.89,4.05-2.37h.05c-.16.74-.32,1.47-.42,2.05h2.1c.32-2.16.84-4.47,1.26-6.79.11-.58.21-1.37.21-1.95,0-2.95-2.42-3.95-4.89-3.95-.89,0-2.37.26-3.42.63l-.47,2.26ZM224.65,27.95c-1.1,0-2.05-.58-2.05-1.68,0-2.26,2.58-2.74,4.31-2.74h1.74c-.21,2.16-1.68,4.42-4,4.42"/>
  <polygon class="st1" points="234.39 29.53 236.7 29.53 240.54 11.33 238.28 11.33 234.39 29.53"/>
</svg>