<?xml version="1.0" encoding="UTF-8"?>
<svg id="Layer_1" xmlns="http://www.w3.org/2000/svg" version="1.1" viewBox="0 0 145.26 85.93">
  <!-- Generator: Adobe Illustrator 30.6.0, SVG Export Plug-In . SVG Version: 2.1.4 Build 109)  -->
  <defs>
    <style>
      .st0 {
        fill: #415052;
      }
    </style>
  </defs>
  <path class="st0" d="M145.77,8.73c0,2.1-1.7,3.8-3.8,3.8s-3.8-1.7-3.8-3.8,1.7-3.8,3.8-3.8,3.8,1.7,3.8,3.8ZM144.91,8.76c.02-1.85-1.29-3.19-2.91-3.21-1.69-.02-2.94,1.38-2.96,3.11-.02,1.82,1.18,3.24,2.96,3.23,1.57-.01,2.9-1.28,2.91-3.13Z"/>
  <path class="st0" d="M142.79,10.63l-.68-1.21c-.13-.23-.82-.43-.84-.2l-.09,1.34c0,.09-.08.33-.11.4-.05.12-.52-.15-.52-.32v-3.87c.91-.08,1.61-.09,2.5.05.37.06.67.82.64,1.2-.04.5-.41.82-1.04,1.12l1.01,1.66-.49.16c-.11.04-.31-.21-.38-.32ZM142.74,7.42c-.4-.16-1.21-.27-1.46-.05-.11.17-.12.79-.04.98.07.17,1.27.35,1.71-.2.11-.14-.04-.67-.21-.73Z"/>
  <g>
    <path class="st0" d="M126.75,66.81c-9.73,2.14-21.5,1.3-29.75-4.51-5.99-4.22-9.44-11.01-9.08-18.34.03-.68.75-1.69,1.44-1.7l13.71-.02c.97,0,1.87.71,1.84,1.76-.12,4.82,3.15,7.91,7.63,8.95,3.39.78,6.85.74,10.24-.06,2.69-.63,5.41-2.28,5.29-5.24s-3.65-4.5-6.26-5.28c-6.46-1.92-11.78-2.64-18.36-4.98-7.59-2.71-12.95-7.35-13.46-15.87-.32-5.35,1.38-10.34,5.25-14.07C103.2-.23,115.8-1.34,126.11,1.28c9.71,2.47,17.15,9.09,17,19.68-.02,1.3-.73,2.44-2.16,2.44h-12.98c-1.25,0-2.27-1.04-2.24-2.31.07-2.63-1.26-4.84-3.82-5.82-3.67-1.41-9.7-1.84-13.08.68-1.14.85-1.67,2.09-1.6,3.5.06,1.04.53,1.95,1.5,2.43,1.39.69,2.81,1.25,4.38,1.65l15.32,3.88c8.56,2.17,15.28,6.89,16.6,16.14,1.73,12.1-6.86,20.75-18.29,23.27ZM129.94,64.75c9.12-3.21,15.37-10.8,14-20.78-.67-4.92-3.2-9.11-7.38-11.84-2.62-1.72-5.44-2.93-8.55-3.69l-13.89-3.42c-1.96-.48-6.33-1.62-7.34-3.25-1.45-2.35-.68-5.2,1.47-6.77,1.46-1.07,3.14-1.66,4.99-1.84,5.48-.55,13.25.39,13.54,7.46.02.53.26,1.57.86,1.73h13.8c.57-.37.63-1.13.62-1.77-.1-9.2-6.27-15.34-14.72-17.85-9.5-2.83-20.96-2.36-29.19,3.66-5.19,3.8-7.73,9.73-7.01,16.09.9,8.05,6.62,11.93,13.78,14.32,4.04,1.35,8.05,2.25,12.2,3.22,3.36.79,9.65,2.18,11.39,5.25,1.41,2.49.42,5.59-1.93,7.12-1.3.85-2.69,1.37-4.23,1.68-4.32.86-9.82.72-13.73-1.51-2.93-1.67-4.69-4.64-4.72-8.05,0-.39-.28-.97-.58-1.19h-13.64c-.3,0-.71.52-.73.85-.28,5.71,1.92,11.07,6.01,15.06,2.89,2.83,6.37,4.71,10.25,5.92,7.44,2.32,17.37,2.2,24.73-.39Z"/>
    <path class="st0" d="M19.32,84.68c-.59.76-1.13,1.25-2.06,1.25H3.32c-1.19,0-2.25-.61-2.77-1.46-.58-.97-.84-2.38-.06-3.39l36.89-47.55L61.35,2.7c.91-1.17,2.16-2.12,3.64-2.12h17.89c1.46-.01,2.68,1.14,2.68,2.68v61.39c0,1.56-1.27,2.66-2.79,2.66h-50.01s-13.44,17.37-13.44,17.37ZM32.29,66.22h50.56c1.02,0,1.51-.66,1.68-1.6V3.3c0-.98-.78-1.67-1.69-1.67h-17.84c-.96,0-2.01.72-2.61,1.49L1.27,81.8c-.47.6-.07,1.63.26,2.08s1.05.98,1.77.98h13.41c.67-.07,1.31-.34,1.76-.92l13.82-17.73Z"/>
    <path class="st0" d="M43.43,85.26l-.03-11.76-7.07,11.79c-.81.07-1.5.07-2.33.02l-.05-11.74-8.76,11.71c-.7.12-1.4.12-2.22-.07l10.78-14.42c.66-.08,1.26-.09,2.02-.05l.06,11.9,7.15-11.9,2.29-.02v14.43c-.48.28-1.19.26-1.84.12Z"/>
    <path class="st0" d="M61.52,84.12c-.44.96-1.25,1.54-2.29,1.53s-2.04-.54-2.57-1.59c-1.75-3.46-1-9.55,2.35-9.59,1.04-.01,1.86.57,2.49,1.48l.06-5.22,1.61.03v14.35c-.35.31-1.1.28-1.5.17l-.16-1.16ZM61.1,77.43c-.28-.67-1.01-1.15-1.66-1.12-.57.03-1.27.51-1.52,1.12-.97,2.36-.61,6.5,1.66,6.38,2.04-.11,2.48-4.06,1.52-6.38Z"/>
    <path class="st0" d="M119.39,85.33l-.05-7.47c0-.46-.44-1.19-.77-1.39-.41-.25-1.23-.2-1.64.21-.53.52-.85,1.39-.85,2.13v6.49c-.57.04-1.11.03-1.66-.05v-14.52s1.65-.02,1.65-.02l.02,5.35c.64-1.1,1.48-1.75,2.71-1.57,1,.15,2.09,1.13,2.11,2.4l.1,8.38-1.61.06Z"/>
    <path class="st0" d="M143.11,85.13c-.47.31-1.31.29-1.94.11l-2.24-4.97-.97,1.21v3.85s-1.7-.04-1.7-.04v-14.54s1.69,0,1.69,0v8.3s2.99-4.3,2.99-4.3l1.96.06-2.81,3.86,3.02,6.48Z"/>
    <path class="st0" d="M52.51,82.24c.25-.26,1.02-.25,1.56-.15-.18,1.23-.65,2.31-1.67,3.03-1.54,1.08-3.7.48-4.54-1.27-1.72-3.58-.65-9.05,2.51-9.37,2.93-.29,4.18,3.77,3.8,6.16l-5.48.02c-.03,1.47.53,3.21,2.14,3.14.84-.03,1.32-.66,1.67-1.56ZM52.57,79.14c-.1-.93-.28-1.63-.74-2.23-.55-.72-1.53-.82-2.19-.2-.67.62-.93,1.52-.91,2.42h3.84Z"/>
    <path class="st0" d="M102.13,82.25c.17-.3,1-.26,1.56-.14-.38,2.04-1.64,3.71-3.72,3.52-.97-.09-2.02-.71-2.54-1.78-1.68-3.52-.68-9.05,2.53-9.37,2.92-.29,4.16,3.77,3.8,6.15l-5.48.02c0,.82.13,1.56.51,2.26s1.14.96,1.78.87c.76-.1,1.14-.71,1.55-1.54ZM102.15,79.14c-.09-.93-.28-1.62-.73-2.22-.55-.72-1.52-.83-2.19-.21-.67.62-.95,1.52-.92,2.42h3.84Z"/>
    <path class="st0" d="M125.72,76.89c-.4.54-.67,1.36-.67,1.97l-.02,6.44c-.61.03-1.07.03-1.61-.03v-10.49s1.5-.03,1.5-.03l.15,1.35c.43-.65,1.03-1.33,1.62-1.52.93-.3,2,0,2.56.76.47.65.76,1.62.76,2.44l.03,7.51c-.57.05-1.12.05-1.67.02l-.05-7.58c0-.52-.57-1.21-.96-1.34-.48-.17-1.23-.02-1.62.51Z"/>
    <path class="st0" d="M83.92,78.93l-.02,6.37c-.6.03-1.05.03-1.6-.03v-10.5s1.5-.03,1.5-.03l.15,1.34c.49-.69.99-1.26,1.52-1.47.88-.35,2.04-.05,2.56.61s.84,1.57.84,2.4l.02,7.66c-.54.05-1.09.05-1.64.02l-.04-7.41c0-.59-.52-1.34-.96-1.5-.62-.22-1.37.03-1.76.65-.29.46-.56,1.26-.56,1.89Z"/>
    <path class="st0" d="M76.07,85.35h-6.49c-.08-.38-.25-1.37-.04-1.74l4.02-6.96-3.82-.09.02-1.81h5.97c.07.41.22,1.42,0,1.77l-4.18,6.97,4.51.04v1.8Z"/>
    <path class="st0" d="M109.57,83.5c.57-.44.75-1.24.96-1.96.37-.15,1.06-.15,1.62-.08-.19,1.26-.46,2.29-1.2,3.18-.72.88-1.85,1.16-2.97.92-.88-.19-1.79-.93-2.23-1.96-1.27-2.96-.83-8.38,2.24-9.05,1.14-.25,2.27,0,3.05.83.74.79,1,1.71,1.11,2.89l-1.64-.03c-.18-.95-.5-1.62-1.27-1.87-.75-.24-1.63.13-2,.98-.74,1.68-.74,3.71,0,5.41.38.88,1.45,1.39,2.32.73Z"/>
    <path class="st0" d="M94.9,83.63l.03,1.66c-.82.24-1.73.32-2.48-.21-.36-.25-.66-1.12-.67-1.59l-.04-6.99-1.18-.09v-1.64s1.2-.07,1.2-.07v-3.08s1.68-.02,1.68-.02v3.1s1.46.08,1.46.08l.04,1.63-1.5.07v6.14c-.01.23.1.82.31.88s.52.08,1.14.12Z"/>
    <rect class="st0" x="73.73" y="79.22" width="10.62" height="1.67" transform="translate(-1.02 159.08) rotate(-89.99)"/>
    <rect class="st0" x="65.69" y="74.74" width="1.63" height="10.62"/>
    <rect class="st0" x="127.68" y="79.23" width="10.62" height="1.64" transform="translate(52.93 213.03) rotate(-89.99)"/>
    <rect class="st0" x="78.2" y="70.71" width="1.67" height="2.19"/>
    <rect class="st0" x="131.9" y="70.99" width="2.19" height="1.64" transform="translate(60.77 204.58) rotate(-89.82)"/>
    <rect class="st0" x="65.69" y="70.71" width="1.63" height="2.19"/>
    <path class="st0" d="M135.08,59.79c-7.19,5.27-18.09,5.68-26.53,4.01-9.24-1.82-16.43-7.9-17.45-17.57.03-.28.26-.79.49-.79l10.35.02c1.11,11.05,13.88,12.72,22.4,10.3,2.1-.6,3.94-1.73,5.24-3.34,2.92-3.61,2.03-8.47-1.86-10.92-2.34-1.48-4.9-2.35-7.67-3.03l-13.01-3.18c-2.81-.69-5.33-1.84-7.7-3.43-2.58-1.73-4.57-4.06-5.49-7.04-1.77-5.78.06-11.88,4.53-15.94,2.74-2.49,6.04-4.03,9.72-4.83,7.54-1.64,18.18-1.05,24.74,3.48,4.18,2.93,6.81,7.43,7.01,12.68h-10.87c-.35-3.27-2.18-5.91-5.05-7.52-2.46-1.35-5.21-1.79-8.05-1.75-5.52-.12-12.37,1.94-11.91,8.68.15,2.13,1.02,3.93,2.92,5.04,3.61,2.09,9.58,3.29,13.85,4.22,8.13,1.78,18.85,4.43,20.89,13.85,1.42,6.57-1.15,13.09-6.56,17.05Z"/>
    <path class="st0" d="M31.22,64.1l-14.01,18c-.31.4-.77.57-1.27.63H4.45c-.12-.01-.46-.17-.52-.27-.09-.13-.04-.55.08-.71L63.98,4.56c.38-.49.98-.8,1.57-.8h15.64c.67,0,1.18.47,1.18,1.2v57.99c-.03.78-.48,1.09-1.25,1.16H31.22ZM65.26,52.75c1.38,0,2.49-1.35,2.49-2.58l-.04-26.13c0-1.09-1.41-1.66-2.12-1.77-.96-.15-2.08.26-2.73,1.1l-19.58,25.41c-.67.87-.39,2.05.15,2.82.49.71,1.3,1.17,2.32,1.17l19.51-.03Z"/>
    <path class="st0" d="M64.12,50.6h-17.22c-.4,0-.97-.34-1.11-.61s-.05-.96.2-1.29l18.39-23.78c.13-.16.68-.27.87-.22s.38.48.38.77v23.55c0,.77-.64,1.57-1.51,1.57ZM63.91,49.58c.38-.15.58-.4.67-.75l-.08-22.2-17.73,22.86,17.15.09Z"/>
  </g>
</svg>