<?xml version="1.0" encoding="UTF-8"?>
<svg id="Layer_1" xmlns="http://www.w3.org/2000/svg" version="1.1" viewBox="0 0 235.36 38.05">
  <!-- Generator: Adobe Illustrator 30.6.0, SVG Export Plug-In . SVG Version: 2.1.4 Build 109)  -->
  <defs>
    <style>
      .st0 {
        fill: #2a60ad;
      }
    </style>
  </defs>
  <path class="st0" d="M38.53,12.73h-9.14v18.88h-7.51V12.73h-9.14v-6.07h25.79v6.07Z"/>
  <path class="st0" d="M69.16,31.61h-9.18l-9.54-11.68v11.68h-7.52V6.66h7.52v11.16l9.04-11.16h8.17l-9.29,11.68,10.8,13.27Z"/>
  <path class="st0" d="M112.4,31.61h-7.52v-14.45l-6.79,8.37h-.59l-6.8-8.37v14.45h-7.31V6.66h6.82l7.67,9.36,7.7-9.36h6.82v24.95Z"/>
  <path class="st0" d="M136.43,24.02h-12.91c.25,1.12.87,2.03,1.85,2.74.98.71,2.1,1.06,3.35,1.06,2.18,0,4.6-.61,7.24-1.84v4.01c-.95.49-2.1.94-3.45,1.34-1.35.4-3.07.6-5.16.6-2.26,0-4.18-.42-5.76-1.26-1.58-.84-2.77-1.98-3.55-3.42-.79-1.44-1.18-3.07-1.18-4.9s.39-3.41,1.18-4.83c.79-1.42,1.97-2.54,3.55-3.35,1.58-.81,3.5-1.21,5.76-1.21,1.49,0,2.92.32,4.31.96,1.39.64,2.53,1.69,3.42,3.15.89,1.46,1.34,3.34,1.34,5.64v1.3ZM130.34,20.81c0-1.18-.29-2.11-.87-2.82s-1.42-1.05-2.51-1.05-1.95.36-2.62,1.07-1,1.65-1,2.8h7Z"/>
  <path class="st0" d="M159,31.61h-6.5v-1.66c-.68.58-1.41,1.05-2.17,1.42-.76.37-1.81.56-3.16.56s-2.64-.33-3.92-.99c-1.28-.66-2.34-1.69-3.17-3.09-.83-1.4-1.24-3.16-1.24-5.28,0-1.67.31-3.23.94-4.69s1.6-2.64,2.93-3.55,2.96-1.37,4.9-1.37c1.2,0,2.17.13,2.92.4s1.4.6,1.98,1.01v-7.7h6.5v24.95ZM152.5,25.78v-7c-.76-.42-1.35-.72-1.77-.9s-.93-.27-1.5-.27c-1.02,0-1.87.43-2.55,1.3-.68.86-1.02,2.04-1.02,3.53,0,1.62.36,2.8,1.07,3.54.71.74,1.54,1.11,2.49,1.11.78,0,1.41-.12,1.89-.37.48-.25.94-.55,1.39-.93Z"/>
  <path class="st0" d="M169.92,31.61h-6.5V13.29h6.5v18.32ZM169.4,9.06c0,.76-.27,1.4-.81,1.93s-1.18.79-1.93.79c-.5,0-.96-.12-1.38-.36s-.74-.57-.98-.98c-.24-.41-.36-.87-.36-1.38,0-.74.26-1.39.79-1.93.53-.54,1.17-.81,1.93-.81s1.39.27,1.93.81.81,1.18.81,1.93Z"/>
  <path class="st0" d="M190.08,30.77c-.54.2-1.11.39-1.71.57-.6.17-1.28.32-2.03.43-.75.11-1.57.17-2.46.17-2,0-3.7-.34-5.08-1.02-1.39-.68-2.45-1.53-3.2-2.56-.75-1.03-1.27-2.07-1.56-3.14-.29-1.07-.43-2.01-.43-2.83s.15-1.76.44-2.83c.29-1.07.81-2.1,1.54-3.1.73-1,1.79-1.83,3.18-2.5,1.39-.67,3.09-1.01,5.12-1.01,1.36,0,2.46.1,3.31.29.85.19,1.72.45,2.59.77v5.09c-2.11-.67-3.76-1.01-4.95-1.01s-2.17.35-3.07,1.04c-.89.7-1.34,1.78-1.34,3.24,0,.97.22,1.79.67,2.46.44.67,1.01,1.16,1.69,1.47.68.31,1.37.47,2.05.47.65,0,1.39-.1,2.21-.29.83-.19,1.84-.47,3.02-.83v5.09Z"/>
  <path class="st0" d="M212.24,30.69c-.95.37-1.82.67-2.63.9-.8.23-1.77.34-2.9.34-1.07,0-1.81-.19-2.23-.57s-.72-.84-.9-1.38c-.7.56-1.47,1.03-2.32,1.4-.85.37-1.97.55-3.35.55s-2.41-.23-3.23-.69c-.82-.46-1.4-1.04-1.73-1.75-.33-.7-.5-1.42-.5-2.17,0-1.13.29-2.06.86-2.8.57-.74,1.33-1.34,2.29-1.81.96-.47,2.23-.95,3.82-1.46.9-.29,1.58-.51,2.04-.66.46-.15.81-.27,1.04-.35.23-.08.47-.19.72-.32,0-.89-.18-1.58-.54-2.09s-1.14-.76-2.34-.76c-1.42,0-2.73.31-3.94.94-1.21.62-2.32,1.43-3.33,2.41v-4.97c.8-.58,1.67-1.05,2.61-1.41.94-.37,1.91-.64,2.93-.82,1.02-.18,2.05-.27,3.1-.27,2.65,0,4.65.51,5.98,1.54s2.01,2.44,2.01,4.24v7.07c0,.67.06,1.17.19,1.5s.36.5.69.5c.41,0,.96-.17,1.66-.52v3.4ZM203.22,27.18v-4.34c-1.54.62-2.66,1.19-3.37,1.68-.71.5-1.06,1.17-1.06,2.03,0,.61.18,1.08.53,1.4.35.32.76.49,1.23.49s.88-.12,1.32-.37c.44-.25.88-.54,1.34-.89Z"/>
  <path class="st0" d="M221.1,31.61h-6.5V6.66h6.5v24.95Z"/>
</svg>