<?xml version="1.0" encoding="UTF-8"?>
<svg id="Layer_1" xmlns="http://www.w3.org/2000/svg" version="1.1" viewBox="0 0 221.09 67.51">
  <!-- Generator: Adobe Illustrator 30.6.0, SVG Export Plug-In . SVG Version: 2.1.4 Build 109)  -->
  <defs>
    <style>
      .st0 {
        fill: #0265a6;
      }
    </style>
  </defs>
  <path class="st0" d="M37.17,4.49c-.14-.1-.28-.21-.43-.31C32.11.97,26.28-.64,20.06.24,9.92,1.66,1.77,9.77.26,19.89c-.66,4.46-.04,8.73,1.53,12.5v.03c.7,1.61,2.13,2.8,3.84,3.15.36.07.71.13,1.05.18,1.1.17,2.13.25,3.06.23,7.72-.13,9.8-5.92,10.6-8.14.25-.69.14-1.46-.29-2.05-.43-.6-1.12-.95-1.86-.94l-3.94.06c-.37,0-.71-.13-.97-.4-.26-.26-.4-.61-.39-.98.02-.72.59-1.29,1.32-1.3l3.6-.06c1.78-.03,3.32-1.26,3.75-2.99.94-3.82,4.69-10.62,12.79-11.83.71-.1,1.37-.17,2.02-.22h.04c1.36-.1,1.87-1.85.77-2.65M18.7,18.51c-.1.43-.5.73-.94.74l-3.42.06c-1.87.03-3.89,1.5-4.28,3.33-.37,1.75.3,3.45,1.76,4.48.77.54,1.72.75,2.66.74l2.75-.05c-1.13,2.82-3.67,6.91-12.59,4.52-1.93-4.06-2.64-8.82-1.44-13.83,1.81-7.56,7.85-13.57,15.42-15.33,5.05-1.18,9.84-.43,13.92,1.57-8.7,1.97-12.79,9.47-13.84,13.78"/>
  <path class="st0" d="M9.35,42.57c.14.11.29.21.43.31,4.63,3.22,10.46,4.82,16.68,3.95,10.14-1.43,18.29-9.53,19.8-19.66.66-4.46.04-8.72-1.53-12.5v-.03c-.7-1.61-2.13-2.8-3.84-3.15-.36-.07-.71-.13-1.05-.18-1.1-.17-2.13-.25-3.06-.23-7.72.13-9.8,5.92-10.6,8.14-.25.69-.14,1.46.29,2.05.43.6,1.12.95,1.86.93l3.94-.06c.37,0,.71.14.97.4.26.26.4.61.39.98-.02.72-.59,1.29-1.32,1.3l-3.6.06c-1.78.03-3.32,1.26-3.75,2.99-.94,3.82-4.69,10.62-12.79,11.83-.71.1-1.38.17-2.02.22h-.04c-1.36.1-1.87,1.85-.77,2.65M27.83,28.55c.1-.43.5-.73.94-.74l3.42-.06c1.86-.03,3.89-1.5,4.28-3.33.37-1.75-.3-3.45-1.76-4.48-.77-.54-1.72-.75-2.66-.74l-2.75.04c1.13-2.82,3.66-6.91,12.59-4.52,1.93,4.06,2.63,8.82,1.44,13.83-1.8,7.56-7.85,13.57-15.42,15.33-5.05,1.17-9.84.43-13.92-1.57,8.7-1.97,12.79-9.47,13.84-13.78"/>
  <path class="st0" d="M74.94,11.02c-1.05,0-1.82.77-1.82,1.72v25.36c0,.95.77,1.72,1.82,1.72s1.82-.77,1.82-1.72V12.74c0-.95-.77-1.72-1.82-1.72"/>
  <path class="st0" d="M103.16,28.78c-.05.73-.82,1.46-1.55,1.46h-14.4c.32,3.87,3.15,6.15,7.16,6.15,2.05,0,3.6-.41,5.01-1.23.32-.18.68-.27,1-.27.45,0,.86.18,1.23.59.18.23.27.5.27.82,0,.5-.18,1-.54,1.23-2.33,1.64-4.7,2.28-7.25,2.28-6.65,0-10.98-4.24-10.98-10.71,0-5.97,3.83-10.71,10.57-10.71,5.29,0,9.52,3.74,9.52,9.39,0,.37,0,.69-.04,1M93.5,21.81c-3.74,0-6.1,2.32-6.52,5.47h12.44c-.18-3.37-2.37-5.47-5.92-5.47"/>
  <path class="st0" d="M115.51,26.6l5.06-6.97c.55-.73,1.05-1,1.64-1,1.14,0,1.73.77,1.73,1.59,0,.32-.09.68-.32,1l-5.56,7.52,5.93,8.07c.23.32.36.73.36,1.14,0,.87-.59,1.73-1.82,1.73-.59,0-1.14-.32-1.64-1l-5.51-7.61-5.61,7.61c-.5.69-.96,1-1.69,1-1.09,0-1.64-.77-1.64-1.59,0-.37.14-.78.37-1.1l5.97-8.07-5.42-7.52c-.23-.32-.32-.68-.32-1.05,0-.86.64-1.73,1.82-1.73.77,0,1.18.41,1.64,1l5.01,6.97Z"/>
  <path class="st0" d="M132.82,11.02c1.14,0,2.23.86,2.23,2.19,0,1.5-1.09,2.37-2.23,2.37-1.28,0-2.37-.87-2.37-2.37,0-1.32,1.09-2.19,2.37-2.19M134.56,37.94c0,.96-.77,1.73-1.82,1.73s-1.82-.77-1.82-1.73v-17.59c0-.96.77-1.73,1.82-1.73s1.82.78,1.82,1.73v17.59Z"/>
  <path class="st0" d="M152.1,21.81c-3.69,0-7.02,2.96-7.02,7.29s3.33,7.29,7.38,7.29c1.64,0,3.05-.41,4.37-1.41.46-.36.91-.59,1.41-.59.36,0,.73.14,1.05.46.36.32.5.73.5,1.14,0,.45-.18.91-.5,1.18-2.28,2.05-4.56,2.64-7.11,2.64-6.52,0-10.99-4.24-10.99-10.71,0-5.97,4.38-10.71,10.39-10.71,2.69,0,4.65.46,6.65,1.59.59.32.96.91.96,1.55,0,.27-.05.55-.23.82-.32.55-.91.82-1.5.82-.27,0-.59-.05-.87-.18-1.46-.78-2.87-1.18-4.51-1.18"/>
  <path class="st0" d="M171.05,26.83c1.6,0,3.74.32,5.1,1.32,0-3.83-.59-6.47-4.65-6.47-1.5,0-2.68.27-4.1.82-.23.09-.46.14-.68.14-.59,0-1.14-.32-1.41-.91-.09-.23-.14-.41-.14-.64,0-.63.36-1.23.91-1.46,2.1-.87,3.97-1.23,5.65-1.23,5.83,0,7.88,3.06,7.88,8.38v11.3c0,.87-.73,1.59-1.73,1.59s-1.73-.73-1.73-1.59v-1.37c-1.23,1.55-3.19,2.96-6.56,2.96-3.74,0-6.29-2.37-6.29-6.33,0-4.19,3.33-6.51,7.75-6.51M176.15,31.15c-1.27-.91-2.83-1.37-4.6-1.37-2.19,0-4.37,1-4.37,3.37,0,1.96,1.32,3.23,3.69,3.23,2.69,0,4.24-1.41,5.29-2.64v-2.6Z"/>
  <path class="st0" d="M189.82,37.85c0,1-.82,1.82-1.82,1.82s-1.82-.82-1.82-1.82v-17.41c0-1,.82-1.82,1.82-1.82s1.82.82,1.82,1.82v.82c1.05-1.55,2.55-2.78,5.15-2.78.73,0,1.32.14,1.87.27.73.23,1.32.68,1.32,1.46,0,.18-.04.37-.09.59-.27.91-.87,1.28-1.83,1.28-.27,0-.59-.05-.91-.09-.41-.09-.82-.09-1.23-.09-2.37,0-3.51,1.41-4.28,2.92v13.03h0Z"/>
  <path class="st0" d="M220.81,28.78c-.05.73-.82,1.46-1.55,1.46h-14.4c.32,3.87,3.15,6.15,7.16,6.15,2.05,0,3.6-.41,5.01-1.23.32-.18.68-.27,1-.27.45,0,.86.18,1.23.59.18.23.27.5.27.82,0,.5-.18,1-.55,1.23-2.33,1.64-4.7,2.28-7.25,2.28-6.66,0-10.98-4.24-10.98-10.71,0-5.97,3.83-10.71,10.57-10.71,5.29,0,9.52,3.74,9.52,9.39,0,.37,0,.69-.04,1M211.15,21.81c-3.74,0-6.1,2.32-6.52,5.47h12.44c-.18-3.37-2.37-5.47-5.92-5.47"/>
  <path class="st0" d="M69.07,8.38c-1.23-.73-2.74-1.18-4.56-1.18-4.56,0-7.2,2.83-7.2,8.52v2.63h-1.28c-.96,0-1.73.77-1.73,1.82s.77,1.82,1.73,1.82h1.28v16.14c0,.96.77,1.73,1.83,1.73s1.82-.78,1.82-1.73v-16.14h4.16c.96,0,1.73-.77,1.73-1.82s-.77-1.82-1.73-1.82h-4.16v-2.22c0-3.83,1.55-5.51,4.15-5.51.82,0,1.46.14,2.19.41.32.14.64.18.96.18.91,0,1.59-.59,1.59-1.5,0-.59-.23-1-.77-1.32"/>
  <g>
    <path class="st0" d="M99.48,61.02h1.9l2.07,4.6h.11l2.05-4.6h1.88l-2.95,6.36h-2.1l-2.96-6.36Z"/>
    <path class="st0" d="M107.63,64.2c0-1.98,1.63-3.31,3.94-3.31s3.94,1.32,3.94,3.31-1.63,3.31-3.94,3.31c-2.3,0-3.94-1.34-3.94-3.31ZM113.76,64.2c0-1-.79-1.78-2.19-1.78s-2.19.78-2.19,1.78.79,1.78,2.19,1.78,2.19-.79,2.19-1.78Z"/>
    <path class="st0" d="M116.66,61.02h1.59l.17.92h.11c.5-.67,1-1.04,2.18-1.04h.57v1.77c-.28-.05-.56-.06-.83-.06-1.32,0-2.04.81-2.04,2.05v2.73h-1.76v-6.36h0Z"/>
    <path class="st0" d="M122.08,61.02h1.6l.15.76h.11c.42-.5,1.04-.89,1.97-.89,1.11,0,1.65.55,1.92,1.02h.1c.39-.51,1.06-1.02,2.23-1.02,1.54,0,2.51.85,2.51,2.52v3.97h-1.77v-3.65c0-.86-.57-1.31-1.3-1.31-.8,0-1.36.52-1.36,1.4v3.56h-1.77v-3.61c0-.88-.55-1.35-1.28-1.35s-1.36.47-1.36,1.39v3.57h-1.76v-6.36h0Z"/>
    <path class="st0" d="M141.42,66.08v1.3h-.74c-.62,0-1.2-.19-1.46-.85-.48.59-1.31.98-2.67.98-1.63,0-2.74-.61-2.74-1.9s.97-1.83,2.29-1.93l2.86-.22v-.17c0-.7-.6-1.04-1.53-1.04s-1.42.33-1.55.93h-1.76c.17-1.37,1.37-2.29,3.31-2.29,1.82,0,3.28.78,3.28,2.51v2.12c0,.38.17.56.53.56h.17ZM138.96,64.65l-2.4.18c-.59.05-.98.27-.98.7,0,.48.46.66,1.16.66,1.03,0,2.23-.33,2.23-1.34v-.2Z"/>
    <path class="st0" d="M142.33,58.35h1.76v9.03h-1.76v-9.03Z"/>
    <path class="st0" d="M145.22,65.31h1.73c.15.66.75.92,1.68.92.78,0,1.28-.15,1.28-.62,0-.38-.36-.57-1.22-.74l-1.2-.2c-1.12-.19-2.02-.65-2.02-1.78,0-1.3,1.26-1.98,2.87-1.98,2.04,0,2.98.88,3.14,2h-1.76c-.11-.45-.51-.71-1.39-.71-.71,0-1.14.19-1.14.6s.46.52,1.16.65l1.22.2c1.41.25,2.06.93,2.06,1.95,0,1.35-1.32,1.93-3,1.93-2.18,0-3.31-.81-3.42-2.2Z"/>
    <path class="st0" d="M167.58,67.38h-1.77v-5.93h-.1l-2.79,4.91h-1.82l-2.79-4.91h-.11v5.93h-1.77v-8.9h2.21l3.32,6h.11l3.29-6h2.2v8.9h0Z"/>
    <path class="st0" d="M176.7,65.8v1.58h-7.21v-8.9h7.08v1.58h-5.32v2.04h4.59v1.55h-4.59v2.16h5.44Z"/>
    <path class="st0" d="M186.94,62.9c0,2.79-1.76,4.48-4.43,4.48h-4.36v-8.9h4.36c2.67,0,4.43,1.64,4.43,4.43ZM185.09,62.88c0-1.7-.9-2.77-2.63-2.77h-2.48v5.65h2.48c1.77,0,2.63-1.21,2.63-2.87Z"/>
    <path class="st0" d="M190.28,67.38h-1.82v-8.9h1.82v8.9Z"/>
    <path class="st0" d="M195.86,67.51c-2.65,0-3.96-1.17-4.06-2.9h1.87c.15.88.78,1.36,2.19,1.36,1.06,0,1.84-.27,1.84-1,0-.84-.93-1.07-1.84-1.28l-1.25-.24c-1.4-.32-2.53-1.03-2.53-2.47,0-1.67,1.51-2.62,3.66-2.62,2.3,0,3.59,1.11,3.69,2.65h-1.88c-.13-.66-.66-1.11-1.81-1.11s-1.76.37-1.76.99c0,.66.71.9,1.63,1.12l1.22.22c1.44.31,2.76,1.03,2.76,2.72,0,1.82-1.83,2.57-3.74,2.57Z"/>
    <path class="st0" d="M203,67.38h-1.82v-8.9h1.82v8.9Z"/>
    <path class="st0" d="M212.41,65.75v1.63h-7.94v-1.07l5.04-6.13v-.08h-4.83v-1.63h7.57v1.07l-4.87,6.13v.08h5.04Z"/>
    <path class="st0" d="M221.09,65.8v1.58h-7.21v-8.9h7.08v1.58h-5.32v2.04h4.59v1.55h-4.59v2.16h5.44Z"/>
  </g>
</svg>