<?xml version="1.0" encoding="UTF-8"?>
<svg id="Layer_1" xmlns="http://www.w3.org/2000/svg" version="1.1" viewBox="0 0 219.44 70.93">
  <!-- Generator: Adobe Illustrator 30.6.0, SVG Export Plug-In . SVG Version: 2.1.4 Build 109)  -->
  <path d="M147.25,34.91c2.7.68,4.98,2.28,5.91,5.08,1.67,5.04-.5,11.48-6.47,12.65-2.59.29-5.16.4-7.84.38l-11.39-.06V16.58s14.41.02,14.41.02c1.93,0,3.78.44,5.59.89,2.59,1,4.42,3.02,5.18,5.69,1.35,4.69-.07,9.85-5.4,11.72ZM144.16,27.26c-.11-4.54-4.82-4.14-7.89-4.04v8.43c1.72.03,3.27.03,4.77-.25,2.1-.39,3.18-1.95,3.12-4.14ZM144.78,42.57c.03-2.31-1.3-4.21-3.68-4.37-1.61-.11-3.2-.13-4.82-.12v8.51c1.86.04,3.58.05,5.28-.14,2.09-.24,3.2-1.85,3.23-3.87Z"/>
  <path d="M176.44,39.63l7.9,13.28-10.48.07-7.87-13.79-.14,13.81-8.77-.05V16.59s12.72,0,12.72,0c2.3,0,4.53.47,6.68,1.07,3.23,1.19,5.51,3.62,6.4,6.96,1.46,5.94.11,12.28-6.44,15.01ZM174.49,28.56c-.17-2.63-2.12-4.67-4.7-4.67h-3.89s0,9.99,0,9.99c1.62.08,3.19.14,4.69-.15,2.51-.48,4.07-2.54,3.9-5.17Z"/>
  <path d="M207.63,45.81h-11.7s-2.34,7.19-2.34,7.19l-9.21-.06,11.96-36.37,11.2.02,11.9,36.37-9.5.03-2.31-7.19ZM205.4,38.58l-3.6-11.37-3.64,11.43,7.24-.06Z"/>
  <polygon points="123.16 38.29 111.23 38.32 111.23 45.81 123.14 45.83 123.12 53 102.43 52.99 102.42 16.59 123.16 16.59 123.17 23.72 111.22 23.76 111.25 31.14 123.17 31.15 123.16 38.29"/>
  <polygon points="93.88 53.01 70.62 52.96 85.72 23.78 72.39 23.7 76.07 16.58 99.39 16.6 84.26 45.79 97.62 45.84 93.88 53.01"/>
  <path d="M31.99,49.73l-.06,7-9.84-9.81-.02-28.38L9.19,5.67c1.29-1.08,2.54-1.9,4.19-2.86l13.66,13.61.07-16.42c4.26.08,7.62,3.25,8.09,7.18.51,4.25-2.01,7.87-6.13,9.12l5.2.17,4.85,4.94-12.03.06v23.39s4.9,4.86,4.9,4.86Z"/>
  <path d="M.87,18.57l11.12,11.1.06-6.97L2.78,13.4c.97-1.6,1.72-2.75,2.84-4.22l11.49,11.52-.06,21.42L0,24.78c-.03-2.09.28-4.04.86-6.21Z"/>
  <path d="M31.95,70.93L.12,39.04c-.07-2.33-.08-4.47.04-7.04l31.8,31.86v7.08Z"/>
  <path d="M52.01,45.68l.03-6.27,5.03-.02,6.4,6.31c-.06,4.67-3.76,8.25-8.23,8.22-4.43-.03-8.16-3.52-8.17-8.21l-5.05-.02v-14.18s-4.88-4.92-4.88-4.92l7.09-.07,4.88,4.97-6.97.13,4.91,4.93v9.14s4.96-.01,4.96-.01Z"/>
  <polygon points="37.03 45.57 32.02 45.63 32.04 21.53 37.06 26.57 37.03 45.57"/>
</svg>