<?xml version="1.0" encoding="UTF-8"?>
<svg id="Layer_1" xmlns="http://www.w3.org/2000/svg" version="1.1" viewBox="0 0 169.17 65.51">
  <!-- Generator: Adobe Illustrator 30.6.0, SVG Export Plug-In . SVG Version: 2.1.4 Build 109)  -->
  <defs>
    <style>
      .st0 {
        fill: #05a8a0;
      }
    </style>
  </defs>
  <path class="st0" d="M32.38,12.35c1.26-.97,3.25-.79,4.72-.78h3.71s-.47,4.12-.47,4.12l-.51,4.99-.56,5.2c-.19,1.8-1.05,3.69-2.33,4.82-2.32,2.06-6.25,2.09-9.06,1.67-4.09-.61-4.76-2.72-5.62-2.42-.51.18-3.16,3.48-10.92,2.49-1.15-.15-3.91-.68-4.93-1.06C3.87,30.43-.29,27.72.02,24.9l.82-7.59c.13-1.19.35-2.65.59-3.87.43-2.15,7.29-1.94,9.04-1.82.03.65.04,1.13-.05,1.55-.3,1.48-.37,2.83-.53,4.32-.17,1.6-.43,3.08-.51,4.72-.06,1.25-.8,3.01-.33,4.18.74,1.87,3.2,1.52,4.64.5,1.31-.93,1.49-2.6,1.65-4.14l.54-5.17.42-4.03c.11-1.05,1.51-1.96,2.62-1.96l6.52-.03c.16.84.04,1.72-.06,2.58l-.47,4.18-.53,5.22c-.1.97-.63,2.32-.13,3.23,1.27,1.71,4.6,1.27,5.6-.62.98-1.87.71-4.17,1-6.18.39-2.73.26-6.63,1.53-7.61Z"/>
  <path class="st0" d="M68.24,16.99l-.5,3.63-1.36,10.91h-8.41s.3-3.74.3-3.74l.34-2.64.37-3.5.55-4.7.44-3.74,2.08.71c1.83.62,3.25.36,5.02-.26,4.42-1.56,15.14-4.08,18.16.81,1.19,1.92,1.33,4.07.76,6.2l-.67,6.34-.52,4.54-6.78.02c-1.76-.73-1.58-2.92-1.31-4.5.36-2.14.45-3.99.46-6.15,0-1.84-.29-3.98-2.15-4.74-2.39-.98-4.75-.7-6.79.82Z"/>
  <path class="st0" d="M100.08,15.92c-2.14.56-2.09,1.55-2.29,3.19l-.57,4.68-.49,3.97-.5,3.79-8.56-.03c.34-1.62.39-2.48.53-3.75l.5-4.47.51-4.74.56-5.32,3.29.98c.5.15,1.72.09,2.28-.08,3.58-1.1,3.96-1.51,7.96-2.11,2.81-.42,5.89-.66,8.46.06,2.96.82,4.45,3.34,4.23,6.21l-.3,3.93-.51,4.5-.51,4.83h-6.37c-3.54-.01-.64-6.5-1.33-12.51-.35-3.01-3.9-3.92-6.9-3.13Z"/>
  <path class="st0" d="M126.99,22.98c-.25,1.93,2.18,4.23,4.87,4.61,4.57.64,8.98.43,12.6-2.46l2.33,1.99c-2.12,3.07-6.89,4.76-10.27,5.25-3.98.58-8.12.05-11.73-1.76-1.71-.85-3.05-2.01-4.37-3.4-1.59-1.68-2.26-4.15-1.84-6.6.89-5.18,7.21-8.16,12.11-8.72,1.97-.23,5.51-.21,7.28.19,4.53,1.02,11.82,4.51,9.8,10.53l-17.16.02c-.47,0-.44-1.79.04-1.8l5.02-.11c.77-.02,3.11-.86,3.49-2.23.2-.73.06-1.84-.5-2.45-1.5-1.64-4-1.89-6.12-1.02-2.42.98-4.46,3.09-5.13,5.68-.17.68-.33,1.62-.42,2.29Z"/>
  <path d="M71.29,63.27l5.54-.02c.39-.25.4-1.46,0-1.69l-5.71-.07-.02-2.13,5.62-.04c.48,0,.57-1.67.11-1.68l-5.72-.13.02-2.08,5.69-.09c.4-.16.39-1.51,0-1.69l-5.7-.08v-2.11s5.73-.06,5.73-.06c.35-.43.37-1.51,0-1.93l-5.67-.06c-.07-.5-.09-1.4-.06-2.16l5.79-.05c.19-.52.21-1.29.09-1.98l-5.9-.05-.04-1.95,5.96-.07.18-1.26c.03-.23.77-.26,1-.23l1.09.15c.27.04.27.71.38,1.32l6.23.09.02,10.35-5.93.05c-.5,0-.58,1.64-.12,1.69l5.93.14.06,2.08-6.18.03c-.08.39-.07,1.1.02,1.73l6.15.07v2.12s-6.1.04-6.1.04c-.29.3-.23,1.36.12,1.71l5.88.05c.12.55.13,1.37.07,2.18l-15.2-.07c-2.01,0-3.75-2.04-3.76-3.9l-.03-11.59h2.45s.03,11.31.03,11.31c0,1.03.68,2.06,1.94,2.05ZM83.48,47.22c-.03-.75-.07-1.38-.19-2.01l-3.57.05c-.07.73-.08,1.46-.03,1.98l3.79-.02ZM83.37,51.43c.11-.76.12-1.46-.13-1.94-1.18-.06-2.41-.05-3.5.05-.16.61-.12,1.31.03,1.9h3.59Z"/>
  <path class="st0" d="M158.63,31.55h-8.44s.34-2.98.34-2.98l.58-4.99.44-3.73.57-5.65c.27-2.68,1.99,1.45,7.28-.49,1.72-.63,10.28-3.09,9.76-.05l-.57,3.35c-2.37-1.93-5.58-1.93-8,0l-.51,3.37-.45,3.9-.52,4.23-.46,3.02Z"/>
  <path class="st0" d="M54.51,31.4c-2.94.14-6.71.82-8.96-1.76s-1.37-5.07-.93-8.45l.52-3.95c.23-1.72.17-3.43.99-5.01.29-.56,1.69-.68,2.33-.67l6.56.09-.61,5.17-.62,5.15-.77,6.61c-.12,1.05.6,1.91,1.49,2.82Z"/>
  <path d="M92.97,63.27h18.06c.23.59.23,1.37.11,2.19h-18.15c-1.91-.35-3.46-1.96-3.46-3.98v-18.28s21.52-.01,21.52-.01c.3.57.28,1.47-.03,2h-19.04s-.03,16.04-.03,16.04c0,.7.44,1.46,1.01,2.04Z"/>
  <path d="M34.1,50.48c-.99.47,1.14,7.15-5.54,10.42-.49-.17-1.25-1.51-.87-1.91,3.07-2.43,3.66-4.35,3.55-8.21-.51-.28-1.06-.49-1.22-.81-.19-.37.09-1.64.54-1.65l4.11-.07.03-1.71-4.55-.04-.05-1.89,7.96-.07c.26-1.09,2.29-1.47,2.65-.71.64,1.35-.9,2.51-2.04,2.63-.52.05-1.16.13-1.25.42-.12.37,0,1.37.41,1.38l2.72.09.05,6.6-2.18-.02v-3.68c-.01-.18-.16-.55-.24-.65-.11-.14-.67-.19-.71-.02s-.09.49-.09.73l.02,14.03c-1.03.13-1.65.13-2.68,0l.03-13.97v-.62c0-.18-.49-.35-.65-.28Z"/>
  <path d="M108.88,59.5c.44.32.41,1.72.03,2.03-3.17.08-5.77-1.84-6.82-4.93-1.71,2.77-3.62,4.76-6.88,5.19-.13-.48-.13-1.44,0-2.05,2.31-.74,4.06-2.34,4.39-4.73l-5.38-.07c-.31-.39-.28-1.71.12-2.13l5.73-.09c.38-.52.39-1.75.05-2.19l-2.66-.12c-.72-.03-1.72-.57-2.04-1.07-.41-.65-.54-2.08-.21-2.67l2.12.09.27,1.29c.06.3.87.48,1.2.48h10.3s0,1.9,0,1.9l-6.13.06-.11,2.26,6.76.05c.42.45.46,1.73.12,2.13l-5.33.07c.06,2.48,2.04,4.09,4.47,4.5Z"/>
  <path d="M53.37,53.08l-11.45-.03c-.46-.48-.46-1.61,0-2.12l11.29-.03c.41-.46.43-1.36.16-2l-11.6-.02c-.17-.61-.19-1.38-.13-2.19h14.43s.02,10.57.02,10.57l-14.19.02c-.35-.58-.38-1.36-.23-2.16l11.52-.02c.31-.54.34-1.29.19-2.02Z"/>
  <path d="M113.01,58.98c2.85-.08,4.65-4.17,3.68-4.67-.41-.21-1.44-.03-1.51-.38-.08-.37-.08-1.18,0-1.52s1.1-.22,1.58-.35c.28-.33.25-1.48.18-2.05l-1.71-.21-.15-2.01,1.87-.21.06-4.36,9.81-.05.28-1.47,2.69.05.58,1.41,8.02.06c.42.39.35,1.5-.09,1.97h-17.87c-.49,0-1,.54-1.01.98-.01,3.28.1,6.28-.11,9.55-.14,2.11-3.24,5.75-6.27,5.29l-.03-2.03Z"/>
  <path d="M120.07,63.28l8.81-.02c.62,0,1.44-.65,1.45-1.32l.08-6.21c1.71-1.49,3.09-3,3.5-5.51l-11.24-.04c-.2-.46-.23-1.22-.17-2.01h14.35c-.31,3.59-1.67,6.59-4.21,8.92l-.02,4.95c0,1.7-1.19,3.23-3.14,3.32-3.06.15-6.13.1-9.37.09-.23-.57-.24-1.41-.05-2.18Z"/>
  <path class="st0" d="M50.41,9.23c-1.89-.2-3.08-1.43-3.6-3.05-.78-2.38.4-4.99,2.61-5.86,2.27-.89,4.9.09,5.98,2.39.75,1.58.59,3.32-.31,4.66-.99,1.47-2.65,2.07-4.68,1.86Z"/>
  <path d="M62.92,65.43l-.02-18.82-3.16-.15.1-2.12c1.73-.04,4.11.07,5.65-.17.78-.12,2.36-1.53,2.86-.3.51,1.55-1.33,2.68-2.95,2.7l-.03,18.84-2.45.02Z"/>
  <path d="M53.25,63.24c.4-.42.82-1.17,1.23-1.26.44-.1,1.59.07,1.62.5.12,1.4-1.25,2.9-2.7,2.92l-6.81.11c-2.08.03-3.68-1.37-3.73-3.51l-.09-3.33,2.22-.04.06,3.44c0,.55.64,1.23,1.3,1.23l6.9-.05Z"/>
  <path d="M54.5,43.71c.43.4.39,1.29.23,2.03l-9.64-.03c-1.25,0-2.08-1.24-1.99-2.35l.14-1.57h2.18s.23,1.9.23,1.9l8.84.03Z"/>
  <path d="M57.51,60.74h-10.23c-.21-.56-.2-1.34-.05-2.14h10.19c.39.5.36,1.35.09,2.14Z"/>
  <path d="M40.24,64.68c-.7-.16-1.54-.55-1.84-1.03.41-1.64.72-3.15.88-4.9.35-.24,1.48-.19,2.12.06-.06,2.11-.38,3.9-1.17,5.87Z"/>
</svg>