<?xml version="1.0" encoding="UTF-8"?>
<svg id="Layer_1" xmlns="http://www.w3.org/2000/svg" version="1.1" viewBox="0 0 209.67 28.78">
  <!-- Generator: Adobe Illustrator 30.6.0, SVG Export Plug-In . SVG Version: 2.1.4 Build 109)  -->
  <path d="M131.6,23.83l3.71-14.78-9.38,14.78c-.53.04-.98.04-1.55.02l-1.9-14.98-3.9,14.92c-.58.12-1.2.13-1.86,0l4.41-17.07,3.28.03,1.82,13.66,8.73-13.67h3.24s-4.41,17.11-4.41,17.11c-.73.05-1.39.04-2.2-.03Z"/>
  <path d="M50.44,20.99c-1.3,1.93-3.18,2.9-5.42,2.91h-6.35s0-17.16,0-17.16l6.22.02c2.61.01,4.71,1.42,6.01,3.69,1.72,3.28,1.56,7.33-.47,10.55ZM48.91,19.44c1.32-2.64,1.33-5.69.03-8.21-.8-1.55-2.19-2.63-3.93-2.65l-4.21-.04v13.51s4.02-.02,4.02-.02c1.74,0,3.27-.96,4.08-2.59Z"/>
  <polygon points="21.09 10.66 17.6 28.78 17.55 6.87 34.34 5.33 21.09 10.66"/>
  <path d="M152.83,23.95c-3.7-1.04-2.97-7.54.66-10.97,1.3-1.23,3-1.84,4.74-1.64,1.2.13,1.99.83,2.55,1.9l1.56-5.92,1.93.04-4.27,16.52-1.73.04.41-2.11c-1.43,1.74-3.51,2.8-5.85,2.14ZM155.17,22.55c1.85-.28,3.44-1.59,4.01-3.3.61-1.8,1.48-4.35.35-5.61-1.3-1.46-3.95-.96-5.41,1.12-1.19,1.7-1.73,3.8-1.52,5.86.13,1.27,1.16,2.15,2.58,1.93Z"/>
  <path d="M178.57,22.54c1.76,0,3.02-.94,3.96-2.28.58.03,1.23.16,1.77.35-1.65,2.57-4.43,3.83-7.31,3.46-1.93-.25-3.29-1.72-3.4-3.69-.29-4.98,3.99-9.98,9.11-8.94,3.04.62,3.33,3.99,2.51,6.47h-9.13c-.4.92-.53,2.05-.18,3.02.38,1.06,1.48,1.62,2.68,1.61ZM183.35,16.51c.41-.89.34-2-.16-2.76s-1.59-1.11-2.62-.96c-1.94.28-3.44,1.7-4.09,3.7l6.87.02Z"/>
  <path d="M141.64,22.44c1.9.43,3.65-.53,4.71-2.09.53-.14,1.27,0,1.85.26-1.64,2.56-4.44,3.83-7.32,3.45-1.94-.26-3.29-1.76-3.39-3.73-.25-4.95,3.99-9.92,9.1-8.9,3.08.62,3.33,4.06,2.52,6.47l-9.22.02c-.55,1.88-.48,4.02,1.75,4.52ZM147.32,16.51c.32-1.06.31-2.13-.36-2.94-.6-.72-1.71-.94-2.67-.75-1.88.37-3.4,1.84-3.84,3.68l6.87.02Z"/>
  <path d="M104.16,20.24c.69.08,1.28.2,1.85.37-.8,2.27-2.93,3.48-5.3,3.54-2.41.06-4.51-1.23-5.36-3.5-.89-2.39-.73-5.1.84-7.19,1.92-2.56,5.89-2.93,8.23-.75,1.46,1.35,1.86,3.31,1.81,5.21h-9.11c-.35,1.86.58,3.83,2.38,4.42,1.86.61,3.88-.05,4.66-2.09ZM104.09,16.49c-.03-1.47-.45-2.46-1.43-3.15-1.09-.77-2.6-.81-3.8-.05-.94.6-1.69,1.76-1.71,3.2h6.95Z"/>
  <path d="M205.35,23.9l2.19-8.6c.14-.53-.04-1.44-.37-1.86-1.2-1.5-5.18,0-6.07,3.37l-1.88,7.11-1.93-.02,4.28-16.54h1.93s-1.58,6.4-1.58,6.4c1.46-1.62,2.92-2.6,4.99-2.42.83.07,1.74.48,2.15,1.04.5.69.77,1.73.55,2.57l-2.3,8.97h-1.95Z"/>
  <path d="M59.72,24.14c-2.11.1-3.8-.95-4.76-2.67-1.08-2.1-1.22-4.55-.34-6.75.84-2.11,2.74-3.34,4.99-3.43s4.04.92,5.02,2.86c1.06,2.1,1.11,4.54.18,6.7-.91,2-2.75,3.27-5.09,3.29ZM62.92,20.19c.52-1.61.48-3.38.02-4.93-.45-1.5-1.78-2.4-3.23-2.4s-2.72.97-3.15,2.46-.42,3.2,0,4.75,1.67,2.48,3.16,2.51c1.4.02,2.71-.85,3.21-2.38Z"/>
  <path d="M78.71,16.41l-.09,7.5-1.93-.02v-12.23s1.8-.04,1.8-.04l.15,2.01c1.16-1.77,2.82-2.62,4.84-2.24,1.86.35,3.22,1.93,3.22,3.91l.03,8.59h-1.96s-.02-8.59-.02-8.59c0-1.32-.96-2.27-2.33-2.35-1.87-.11-3.7,1.41-3.73,3.47Z"/>
  <path d="M168.4,23.83c-.74.1-1.42.1-2.16.05l3.8-14.69-4.84-.08.49-1.81h11.85s-.44,1.83-.44,1.83h-4.88s-3.81,14.7-3.81,14.7Z"/>
  <path d="M188.04,20.38c.09,1.49,1.2,2.27,2.5,2.15,1.72-.16,2.93-1.26,3.64-2.96l1.71.3c-1,2.49-3.21,4.2-5.87,4.29-2.22.08-3.95-1.25-4.1-3.52-.19-2.86.96-5.72,3.09-7.66,1.65-1.5,3.95-2.11,6.04-1.36,1.62.58,2.22,2.34,1.97,3.94l-1.81.3c.04-1.03-.04-2.12-1-2.62-1.35-.71-3.01-.22-4.06.9-1.52,1.63-2.26,3.9-2.12,6.24Z"/>
  <path d="M110.17,23.89l-1.93.03v-12.26s1.72-.04,1.72-.04l.02,2.72.85-1.42c.76-1.28,2.16-1.84,3.63-1.56l-.02,1.79c-2.18-.18-4.02,1.44-4.18,3.67-.17,2.34-.06,4.5-.09,7.08Z"/>
  <path d="M69.93,23.9h-1.94s-.01-12.16-.01-12.16c.52-.09,1.16-.12,1.7-.11l.14,2.59c.94-1.99,2.26-3.27,4.4-2.85l-.03,1.78c-2.22-.17-4.05,1.48-4.19,3.72s-.06,4.46-.08,7.04Z"/>
  <rect x="90.29" y="11.6" width="1.96" height="12.32"/>
  <path d="M16.73,28.73l-3.45-18.06L0,5.32l16.8,1.55-.07,21.86ZM16.56,25.43l.03-18.31L1.94,5.79l11.61,4.7,2.57,13.56c.09.49.29,1.02.44,1.38Z"/>
  <path d="M16.79.02c1.63-.21,2.99.98,3.18,2.4.2,1.55-.86,2.96-2.41,3.17s-2.78-.77-3.15-2.26c-.34-1.41.67-3.08,2.38-3.3ZM18.96,1c-1.32-1.11-2.72-.83-3.61.09s-1,2.37.04,3.5l3.57-3.58Z"/>
  <circle cx="91.11" cy="8.03" r="1.36"/>
</svg>